{
  "accessors": [
    {
      "bufferView": 2,
      "componentType": 5126,
      "count": 3325,
      "max": [
        104.0440673828125,
        57.97093200683594,
        225.07638549804688
      ],
      "min": [
        0.0,
        0.0,
        0.0
      ],
      "type": "VEC3"
    },
    {
      "bufferView": 2,
      "byteOffset": 39900,
      "componentType": 5126,
      "count": 3325,
      "max": [
        0.9999082088470459,
        0.9999995231628418,
        0.9955016374588013
      ],
      "min": [
        -0.9999082088470459,
        -0.9998036623001099,
        -0.9974133372306824
      ],
      "type": "VEC3"
    },
    {
      "bufferView": 1,
      "componentType": 5126,
      "count": 3325,
      "max": [
        0.9942619800567627,
        0.9931409955024719
      ],
      "min": [
        0.00877000018954277,
        0.009794999845325947
      ],
      "type": "VEC2"
    },
    {
      "bufferView": 0,
      "componentType": 5125,
      "count": 14430,
      "type": "SCALAR"
    },
    {
      "bufferView": 2,
      "byteOffset": 79800,
      "componentType": 5126,
      "count": 128,
      "max": [
        81.52720642089844,
        37.72346878051758,
        125.28402709960938
      ],
      "min": [
        22.516862869262695,
        5.755616188049316,
        43.635963439941406
      ],
      "type": "VEC3"
    },
    {
      "bufferView": 2,
      "byteOffset": 81336,
      "componentType": 5126,
      "count": 128,
      "max": [
        0.983327329158783,
        0.9990432262420654,
        0.28526103496551514
      ],
      "min": [
        -0.983327329158783,
        -0.9991461038589478,
        0.041318003088235855
      ],
      "type": "VEC3"
    },
    {
      "bufferView": 1,
      "byteOffset": 26600,
      "componentType": 5126,
      "count": 128,
      "max": [
        0.6120309829711914,
        0.9428489804267883
      ],
      "min": [
        0.4356650114059448,
        0.6026409864425659
      ],
      "type": "VEC2"
    },
    {
      "bufferView": 0,
      "byteOffset": 57720,
      "componentType": 5125,
      "count": 570,
      "type": "SCALAR"
    }
  ],
  "asset": {
    "extras": {
      "author": "Joseph Lefebvre (https://sketchfab.com/long4gottenson)",
      "license": "CC-BY-NC-4.0 (http://creativecommons.org/licenses/by-nc/4.0/)",
      "source": "https://sketchfab.com/3d-models/knight-artorias-the-abysswalker-386a1ccd726e479c8fff91235b951bab",
      "title": "Knight Artorias The Abysswalker"
    },
    "generator": "Sketchfab-12.65.0",
    "version": "2.0"
  },
  "bufferViews": [
    {
      "buffer": 0,
      "byteLength": 60000,
      "name": "floatBufferViews",
      "target": 34963
    },
    {
      "buffer": 0,
      "byteLength": 27624,
      "byteOffset": 60000,
      "byteStride": 8,
      "name": "floatBufferViews",
      "target": 34962
    },
    {
      "buffer": 0,
      "byteLength": 82872,
      "byteOffset": 87624,
      "byteStride": 12,
      "name": "floatBufferViews",
      "target": 34962
    }
  ],
  "buffers": [
    {
      "byteLength": 170496,
      "uri": "scene.bin"
    }
  ],
  "extensionsUsed": [
    "KHR_materials_unlit"
  ],
  "images": [
    {
      "uri": "textures/phong1SG_baseColor.png"
    }
  ],
  "materials": [
    {
      "doubleSided": true,
      "extensions": {
        "KHR_materials_unlit": {}
      },
      "name": "phong1SG",
      "pbrMetallicRoughness": {
        "baseColorTexture": {
          "index": 0
        },
        "metallicFactor": 0.0
      }
    }
  ],
  "meshes": [
    {
      "name": "Object_0",
      "primitives": [
        {
          "attributes": {
            "NORMAL": 1,
            "POSITION": 0,
            "TEXCOORD_0": 2
          },
          "indices": 3,
          "material": 0,
          "mode": 4
        }
      ]
    },
    {
      "name": "Object_1",
      "primitives": [
        {
          "attributes": {
            "NORMAL": 5,
            "POSITION": 4,
            "TEXCOORD_0": 6
          },
          "indices": 7,
          "material": 0,
          "mode": 4
        }
      ]
    }
  ],
  "nodes": [
    {
      "children": [
        1
      ],
      "matrix": [
        1.0,
        0.0,
        0.0,
        0.0,
        0.0,
        2.220446049250313e-16,
        -1.0,
        0.0,
        0.0,
        1.0,
        2.220446049250313e-16,
        0.0,
        0.0,
        0.0,
        0.0,
        1.0
      ],
      "name": "Sketchfab_model"
    },
    {
      "children": [
        2
      ],
      "matrix": [
        1.0,
        0.0,
        0.0,
        0.0,
        0.0,
        1.0,
        0.0,
        0.0,
        0.0,
        0.0,
        1.0,
        0.0,
        -52.02203369140625,
        -21.096479415893555,
        -18.81130027770996,
        1.0
      ],
      "name": "7cec62ca0f534432808c2003ebe6fdd6.obj.cleaner.materialmerger.gles"
    },
    {
      "children": [
        3,
        4
      ],
      "name": "Object_2"
    },
    {
      "mesh": 0,
      "name": "Object_3"
    },
    {
      "mesh": 1,
      "name": "Object_4"
    }
  ],
  "samplers": [
    {
      "magFilter": 9729,
      "minFilter": 9987,
      "wrapS": 10497,
      "wrapT": 10497
    }
  ],
  "scene": 0,
  "scenes": [
    {
      "name": "Sketchfab_Scene",
      "nodes": [
        0
      ]
    }
  ],
  "textures": [
    {
      "sampler": 0,
      "source": 0
    }
  ]
}
